<svg xmlns="http://www.w3.org/2000/svg" width="434" height="149" viewBox="0 0 434 149">
  <defs>
    <linearGradient id="hp3-logo-a" x1="50%" x2="50%" y1="0%" y2="100%">
      <stop offset="0%" stop-color="#60BE94"/>
      <stop offset="5.722%" stop-color="#5EBA92"/>
      <stop offset="12.099%" stop-color="#5CB591"/>
      <stop offset="19.023%" stop-color="#59AF8F"/>
      <stop offset="26.385%" stop-color="#57A98C"/>
      <stop offset="34.074%" stop-color="#54A28A"/>
      <stop offset="41.983%" stop-color="#519B88"/>
      <stop offset="50%" stop-color="#4E9385"/>
      <stop offset="58.017%" stop-color="#4A8B83"/>
      <stop offset="65.926%" stop-color="#478380"/>
      <stop offset="73.615%" stop-color="#437A7E"/>
      <stop offset="80.977%" stop-color="#3F717B"/>
      <stop offset="87.901%" stop-color="#3C6879"/>
      <stop offset="94.278%" stop-color="#385F77"/>
      <stop offset="100%" stop-color="#355675"/>
    </linearGradient>
  </defs>
  <path fill="url(#hp3-logo-a)" fill-rule="evenodd" stroke="#D4EDE2" stroke-linecap="round" stroke-linejoin="round" stroke-width="4.62" d="M-2.31 2.64C-2.31-.0938095117-.0938095117-2.31 2.64-2.31L47.4163742-2.31C50.1501837-2.31 52.3663742-.0938095117 52.3663742 2.64L52.3663742 18.7561919C52.3663742 18.9384459 52.5141202 19.0861919 52.6963742 19.0861919L72.4831533 19.0861919C72.6654072 19.0861919 72.8131533 18.9384459 72.8131533 18.7561919L72.8131533 2.64C72.8131533-.0938095117 75.0293438-2.31 77.7631533-2.31L122.36-2.31C125.09381-2.31 127.31-.0938095117 127.31 2.64L127.31 136.36C127.31 139.09381 125.09381 141.31 122.36 141.31L77.7631533 141.31C75.0293438 141.31 72.8131533 139.09381 72.8131533 136.36L72.8131533 125.28019C72.8131533 125.097936 72.6654072 124.95019 72.4831533 124.95019L52.6963742 124.95019C52.5141202 124.95019 52.3663742 125.097936 52.3663742 125.28019L52.3663742 136.36C52.3663742 139.09381 50.1501837 141.31 47.4163742 141.31L2.64 141.31C-.0938095117 141.31-2.31 139.09381-2.31 136.36L-2.31 2.64zM146.69 2.65700952C146.69-.0818243474 148.899338-2.31 151.634546-2.31L271.365454-2.31C274.100662-2.31 276.31-.0818243474 276.31 2.65700952L276.31 107.743812C276.31 110.482646 274.100662 112.710821 271.365454 112.710821L201.69092 112.710821C201.516089 112.710821 201.366374 112.861813 201.366374 113.057831L201.366374 136.34299C201.366374 139.081824 199.157037 141.31 196.421828 141.31L151.634546 141.31C148.899338 141.31 146.69 139.081824 146.69 136.34299L146.69 2.65700952zM211.245922 28.2158428L211.245922 36.216638 261.951388 36.216638 261.951388 28.2158428 211.245922 28.2158428zM296.69 85.7055665L296.69 53.1231809C296.69 50.3893714 298.90619 48.1731809 301.64 48.1731809L363.466709 48.1731809C363.648963 48.1731809 363.796709 48.0254349 363.796709 47.8431809L363.796709 39.8381333C363.796709 39.6558793 363.648963 39.5081333 363.466709 39.5081333L301.64 39.5081333C298.90619 39.5081333 296.69 37.2919428 296.69 34.5581333L296.69 2.65700952C296.69-.0812585456 298.897457-2.31 301.631636-2.31L421.232967-2.31C423.965174-2.31 426.171828-.0843459788 426.1746 2.65195297L426.309998 136.339104 426.31 136.34299C426.31 139.081259 424.102543 141.31 421.368364 141.31L301.631636 141.31C298.897457 141.31 296.69 139.081259 296.69 136.34299L296.69 104.270614C296.69 101.536805 298.90619 99.3206141 301.64 99.3206141L363.466709 99.3206141C363.648963 99.3206141 363.796709 99.1728681 363.796709 98.9906141L363.796709 90.9855665C363.796709 90.8033126 363.648963 90.6555665 363.466709 90.6555665L301.64 90.6555665C298.90619 90.6555665 296.69 88.4393761 296.69 85.7055665z" transform="translate(5 5)"/>
</svg>
